<svg xmlns="http://www.w3.org/2000/svg" width="198.57999999999998" height="35" viewBox="0 0 198.57999999999998 35"><rect class="svg__rect" x="0" y="0" width="131.89999999999998" height="35" fill="#9A31F3"/><rect class="svg__rect" x="129.89999999999998" y="0" width="68.68" height="35" fill="#BE14BF"/><path class="svg__text" d="M13.95 18.19L13.95 18.19L13.95 17.39Q13.95 16.19 14.38 15.27Q14.80 14.35 15.60 13.85Q16.40 13.35 17.45 13.35L17.45 13.35Q18.86 13.35 19.73 14.12Q20.59 14.89 20.73 16.29L20.73 16.29L19.25 16.29Q19.14 15.37 18.71 14.96Q18.28 14.55 17.45 14.55L17.45 14.55Q16.48 14.55 15.97 15.26Q15.45 15.96 15.44 17.33L15.44 17.33L15.44 18.09Q15.44 19.47 15.93 20.20Q16.43 20.92 17.38 20.92L17.38 20.92Q18.25 20.92 18.69 20.53Q19.13 20.14 19.25 19.22L19.25 19.22L20.73 19.22Q20.60 20.59 19.72 21.35Q18.84 22.12 17.38 22.12L17.38 22.12Q16.36 22.12 15.59 21.63Q14.81 21.15 14.39 20.26Q13.97 19.37 13.95 18.19ZM26.52 22L25.04 22L25.04 13.47L28.04 13.47Q29.52 13.47 30.32 14.13Q31.12 14.79 31.12 16.05L31.12 16.05Q31.12 16.90 30.71 17.48Q30.30 18.06 29.56 18.37L29.56 18.37L31.47 21.92L31.47 22L29.89 22L28.17 18.71L26.52 18.71L26.52 22ZM26.52 14.66L26.52 17.52L28.05 17.52Q28.80 17.52 29.22 17.15Q29.64 16.77 29.64 16.11L29.64 16.11Q29.64 15.43 29.25 15.05Q28.86 14.68 28.09 14.66L28.09 14.66L26.52 14.66ZM41.09 22L35.52 22L35.52 13.47L41.05 13.47L41.05 14.66L37.00 14.66L37.00 17.02L40.50 17.02L40.50 18.19L37.00 18.19L37.00 20.82L41.09 20.82L41.09 22ZM46.07 22L44.53 22L47.75 13.47L49.08 13.47L52.31 22L50.76 22L50.06 20.01L46.76 20.01L46.07 22ZM48.41 15.28L47.18 18.82L49.65 18.82L48.41 15.28ZM57.95 14.66L55.31 14.66L55.31 13.47L62.08 13.47L62.08 14.66L59.42 14.66L59.42 22L57.95 22L57.95 14.66ZM71.41 22L65.83 22L65.83 13.47L71.37 13.47L71.37 14.66L67.31 14.66L67.31 17.02L70.82 17.02L70.82 18.19L67.31 18.19L67.31 20.82L71.41 20.82L71.41 22ZM82.97 22L81.00 13.47L82.47 13.47L83.79 19.88L85.42 13.47L86.66 13.47L88.27 19.89L89.59 13.47L91.06 13.47L89.09 22L87.67 22L86.05 15.77L84.39 22L82.97 22ZM96.69 22L95.22 22L95.22 13.47L96.69 13.47L96.69 22ZM103.19 14.66L100.55 14.66L100.55 13.47L107.32 13.47L107.32 14.66L104.66 14.66L104.66 22L103.19 22L103.19 14.66ZM112.56 22L111.07 22L111.07 13.47L112.56 13.47L112.56 17.02L116.37 17.02L116.37 13.47L117.85 13.47L117.85 22L116.37 22L116.37 18.21L112.56 18.21L112.56 22Z" fill="#FFFFFF"/><path class="svg__text" d="M143.50 21.24L143.50 21.24L144.28 19.49Q144.84 19.86 145.59 20.09Q146.33 20.32 147.05 20.32L147.05 20.32Q148.42 20.32 148.42 19.64L148.42 19.64Q148.42 19.28 148.03 19.11Q147.64 18.93 146.78 18.74L146.78 18.74Q145.83 18.53 145.19 18.30Q144.56 18.06 144.10 17.55Q143.65 17.03 143.65 16.16L143.65 16.16Q143.65 15.39 144.07 14.77Q144.49 14.15 145.32 13.79Q146.16 13.43 147.36 13.43L147.36 13.43Q148.19 13.43 149.00 13.62Q149.80 13.80 150.42 14.17L150.42 14.17L149.68 15.93Q148.48 15.28 147.35 15.28L147.35 15.28Q146.64 15.28 146.32 15.49Q146.00 15.70 146.00 16.04L146.00 16.04Q146.00 16.37 146.38 16.54Q146.77 16.71 147.62 16.89L147.62 16.89Q148.58 17.10 149.21 17.33Q149.84 17.56 150.30 18.07Q150.76 18.58 150.76 19.46L150.76 19.46Q150.76 20.21 150.34 20.83Q149.92 21.44 149.08 21.80Q148.24 22.17 147.04 22.17L147.04 22.17Q146.02 22.17 145.06 21.92Q144.10 21.67 143.50 21.24ZM156.76 22L154.33 22L158.04 13.60L160.38 13.60L164.10 22L161.63 22L160.97 20.37L157.42 20.37L156.76 22ZM159.19 15.93L158.11 18.61L160.27 18.61L159.19 15.93ZM167.67 21.24L167.67 21.24L168.45 19.49Q169.01 19.86 169.75 20.09Q170.50 20.32 171.22 20.32L171.22 20.32Q172.58 20.32 172.59 19.64L172.59 19.64Q172.59 19.28 172.20 19.11Q171.81 18.93 170.94 18.74L170.94 18.74Q169.99 18.53 169.36 18.30Q168.72 18.06 168.27 17.55Q167.81 17.03 167.81 16.16L167.81 16.16Q167.81 15.39 168.23 14.77Q168.65 14.15 169.49 13.79Q170.32 13.43 171.53 13.43L171.53 13.43Q172.35 13.43 173.16 13.62Q173.96 13.80 174.58 14.17L174.58 14.17L173.85 15.93Q172.65 15.28 171.52 15.28L171.52 15.28Q170.81 15.28 170.48 15.49Q170.16 15.70 170.16 16.04L170.16 16.04Q170.16 16.37 170.55 16.54Q170.93 16.71 171.78 16.89L171.78 16.89Q172.74 17.10 173.37 17.33Q174.00 17.56 174.46 18.07Q174.93 18.58 174.93 19.46L174.93 19.46Q174.93 20.21 174.51 20.83Q174.09 21.44 173.25 21.80Q172.41 22.17 171.21 22.17L171.21 22.17Q170.19 22.17 169.22 21.92Q168.26 21.67 167.67 21.24ZM178.92 21.24L178.92 21.24L179.70 19.49Q180.26 19.86 181.00 20.09Q181.75 20.32 182.47 20.32L182.47 20.32Q183.83 20.32 183.84 19.64L183.84 19.64Q183.84 19.28 183.45 19.11Q183.06 18.93 182.19 18.74L182.19 18.74Q181.24 18.53 180.61 18.30Q179.97 18.06 179.52 17.55Q179.06 17.03 179.06 16.16L179.06 16.16Q179.06 15.39 179.48 14.77Q179.90 14.15 180.74 13.79Q181.57 13.43 182.78 13.43L182.78 13.43Q183.60 13.43 184.41 13.62Q185.21 13.80 185.83 14.17L185.83 14.17L185.10 15.93Q183.90 15.28 182.77 15.28L182.77 15.28Q182.06 15.28 181.73 15.49Q181.41 15.70 181.41 16.04L181.41 16.04Q181.41 16.37 181.80 16.54Q182.18 16.71 183.03 16.89L183.03 16.89Q183.99 17.10 184.62 17.33Q185.25 17.56 185.71 18.07Q186.18 18.58 186.18 19.46L186.18 19.46Q186.18 20.21 185.76 20.83Q185.34 21.44 184.50 21.80Q183.66 22.17 182.46 22.17L182.46 22.17Q181.44 22.17 180.47 21.92Q179.51 21.67 178.92 21.24Z" fill="#FFFFFF" x="142.89999999999998"/></svg>